:SAMPLES-PER-SECOND 30
:FULLY-SPECIFIED
:DEGREES
112
root  16.33477849 39.30044399 -7.223088723 -5.94148016 -61.14860153 7.759630203
lowerback  6.3196702 4.065939903 1.031030059
upperback  2.257329941 5.416450024 -1.441210032
thorax  -0.9674069881 2.70201993 -2.426879883
lowerneck  -2.398099899 8.399270058 -5.983069897
upperneck  16.03389931 11.12559986 3.984129906
head  4.643780231 5.292739868 2.659450054
lclavicle  0 -9.442270133e-015 7.951389973e-016
lhumerus  11.37549973 -0.8261219859 67.72429657
lradius  2.821416352e-031 -2.12331199e-031 143.0359955
lwrist  -7.062250077e-031 -3.531125038e-031 7.707890034
lhand  -1.496451383e-031 -27.76390076 20.11240005
lfingers  90 7.125020027 -90
lthumb  89.89689403 5.08795885 91.16245106
rclavicle  0 -9.442270133e-015 7.951389973e-016
rhumerus  5.913720131 20.98649979 -80.07839966
rradius  -2.739228024e-031 2.228334326e-031 140.871994
rwrist  7.062250077e-031 -1.765562519e-031 -16.8635006
rhand  -7.920061211e-032 -33.2840004 9.303460121
rfingers  -90 -7.125020027 -90
rthumb  -92.93752616 -24.25625642 -97.11982154
rfemur  -9.990819931 12.7184 1.047960043
rtibia  -0 0 48.24620056
rfoot  -9.446393897e-032 -20.84980011 -7.047329903
rtoes  5.373923086 19.29304026 -105.8922705
lfemur  -17.01429939 -12.48569965 -1.711240053
ltibia  -0 0 38.28889847
lfoot  4.4785821e-032 -9.74905014 6.429339886
ltoes  -4.250644065 -19.5611806 -102.515957
113
root  16.36088814 39.4588891 -7.369955318 -4.859200001 -61.60699844 7.203639984
lowerback  6.17166996 3.97033 1.28331995
upperback  2.133399963 5.309420109 -1.255360007
thorax  -1.013039947 2.64835 -2.363509893
lowerneck  -3.25432992 8.454609871 -5.889719963
upperneck  16.11470032 11.30510044 3.660540104
head  4.829510212 5.367849827 2.60165
lclavicle  0 -9.442270133e-015 7.951389973e-016
lhumerus  11.65849972 0.01398489997 67.15579987
lradius  2.841814741e-031 -2.095932493e-031 143.5899963
lwrist  -7.062250077e-031 -0 8.548740387
lhand  -1.496451383e-031 -27.76390076 20.11240005
lfingers  90 7.125020027 -90
lthumb  89.89689403 5.08795885 91.16245106
rclavicle  0 -9.442270133e-015 7.951389973e-016
rhumerus  6.340439796 21.21730042 -79.34149933
rradius  -2.750471833e-031 2.214440953e-031 141.1620026
rwrist  0 8.827812596e-032 -16.99510002
rhand  -7.920061211e-032 -33.2840004 9.303460121
rfingers  -90 -7.125020027 -90
rthumb  -92.93752616 -24.25625642 -97.11982154
rfemur  -10.13529968 13.22299957 1.468299985
rtibia  -0 0 47.28850174
rfoot  -0 -21.19890022 -7.033140182
rtoes  5.373923086 19.29304026 -105.8922705
lfemur  -17.34140015 -12.07610035 -1.672639966
ltibia  -0 0 38.33530045
lfoot  4.485132506e-032 -10.22459984 5.68776989
ltoes  -4.250644065 -19.5611806 -102.515957
114
root  16.39931146 39.57577803 -7.539488575 -3.90418005 -61.96979904 6.674099922
lowerback  6.138899803 3.825459957 1.451189995
upperback  2.04647994 5.130959988 -1.071589947
thorax  -1.095360041 2.557810068 -2.258909941
lowerneck  -3.930979967 8.553370476 -5.718910217
upperneck  15.9847002 11.52390003 3.329839945
head  4.92441988 5.469600201 2.515539885
lclavicle  0 -9.442270133e-015 7.951389973e-016
lhumerus  11.85809994 0.2636319995 66.49659729
lradius  2.864580325e-031 -2.064709083e-031 144.2169952
lwrist  -7.062250077e-031 -1.765562519e-031 7.894100189
lhand  -1.496451383e-031 -27.76390076 20.11240005
lfingers  90 7.125020027 -90
lthumb  89.89689403 5.08795885 91.16245106
rclavicle  0 -9.442270133e-015 7.951389973e-016
rhumerus  6.874380112 21.46990013 -78.65499878
rradius  -2.762182478e-031 2.199816355e-031 141.4660034
rwrist  1.412450015e-030 -0 -17.0102005
rhand  -7.920061211e-032 -33.2840004 9.303460121
rfingers  -90 -7.125020027 -90
rthumb  -92.93752616 -24.25625642 -97.11982154
rfemur  -10.32180023 13.47819996 1.919800043
rtibia  -0 0 46.81980133
rfoot  -0 -21.47200012 -7.569349766
rtoes  5.373923086 19.29304026 -105.8922705
lfemur  -17.7826004 -11.28590012 -1.74672997
ltibia  -0 0 38.8689003
lfoot  4.490421365e-032 -10.59220028 4.541679859
ltoes  -4.250644065 -19.5611806 -102.515957
115
root  16.44155547 39.64777669 -7.719866685 -3.063290119 -62.28379822 6.160459995
lowerback  6.076039791 3.665620089 1.648419976
upperback  2.043910027 4.931600094 -0.9466869831
thorax  -1.067139983 2.458699942 -2.22329998
lowerneck  -4.487170219 8.669650078 -5.36616993
upperneck  15.68220043 11.7439003 2.952130079
head  4.960410118 5.582590103 2.376940012
lclavicle  0 -9.442270133e-015 7.951389973e-016
lhumerus  12.1843996 0.3792049885 65.8742981
lradius  2.883592342e-031 -2.038072434e-031 144.7480011
lwrist  0 -0 7.208610058
lhand  -1.496451383e-031 -27.76390076 20.11240005
lfingers  90 7.125020027 -90
lthumb  89.89689403 5.08795885 91.16245106
rclavicle  0 -9.442270133e-015 7.951389973e-016
rhumerus  7.48251009 21.69499969 -78.07550049
rradius  -2.773624479e-031 2.185372117e-031 141.7649994
rwrist  7.062250077e-031 8.827812596e-032 -17.0067997
rhand  -7.920061211e-032 -33.2840004 9.303460121
rfingers  -90 -7.125020027 -90
rthumb  -92.93752616 -24.25625642 -97.11982154
rfemur  -10.54039955 13.58300018 2.401309967
rtibia  -0 0 46.83720016
rfoot  -0 -21.75979996 -8.567150116
rtoes  5.373923086 19.29304026 -105.8922705
lfemur  -18.2621994 -10.03610039 -1.960330009
ltibia  -0 0 39.89110184
lfoot  4.495215078e-032 -10.91409969 3.485729933
ltoes  -4.250644065 -19.5611806 -102.515957
116
root  16.47980007 39.69933217 -7.89548919 -2.75199008 -62.59009933 5.992770195
lowerback  6.158909798 3.540390015 1.683619976
upperback  2.115659952 4.767930031 -0.8379240036
thorax  -1.05381 2.376689911 -2.124310017
lowerneck  -4.962039948 8.741359711 -5.057559967
upperneck  15.3302002 11.89589977 2.585259914
head  4.968050003 5.660739899 2.240600109
lclavicle  0 -9.442270133e-015 7.951389973e-016
lhumerus  12.57699966 0.4282819927 65.42240143
lradius  2.894542018e-031 -2.022491173e-031 145.0570068
lwrist  0 -0 7.029419899
lhand  -1.496451383e-031 -27.76390076 20.11240005
lfingers  90 7.125020027 -90
lthumb  89.89689403 5.08795885 91.16245106
rclavicle  0 -9.442270133e-015 7.951389973e-016
rhumerus  8.117959976 21.80540085 -77.4464035
rradius  -2.780438371e-031 2.176696235e-031 141.9440002
rwrist  7.062250077e-031 2.648343779e-031 -16.90369987
rhand  -7.920061211e-032 -33.2840004 9.303460121
rfingers  -90 -7.125020027 -90
rthumb  -92.93752616 -24.25625642 -97.11982154
rfemur  -10.60099983 13.61569977 2.764709949
rtibia  -0 0 47.23009872
rfoot  -0 -21.90060043 -9.637120247
rtoes  5.373923086 19.29304026 -105.8922705
lfemur  -18.59589958 -8.774009705 -2.478929996
ltibia  -0 0 41.33950043
lfoot  4.50261968e-032 -11.39239979 2.957279921
ltoes  -4.250644065 -19.5611806 -102.515957
